<svg id="Laag_1" data-name="Laag 1" xmlns="http://www.w3.org/2000/svg" viewBox="0 0 204.07 366.8" width="204.7" heigth="366.8"><defs><style>.cls-1{fill:#1d1d1b;}</style></defs><path class="cls-1" d="M86.21,342.46H40.27a4.4,4.4,0,0,1-4.4-4.4V35.38a4.4,4.4,0,1,1,8.8,0V333.66H86.21a4.4,4.4,0,1,1,0,8.8Z"/><path class="cls-1" d="M119.47,342.46a4.4,4.4,0,0,1-2.82-7.78c.23-.19,22.75-19.18,37.25-48.41,19.14-38.59,15.94-76-9.53-111.32-65.81-91.16.24-142.57.92-143.08a4.4,4.4,0,0,1,5.3,7c-2.47,1.88-59.73,46.92.91,130.9,65.68,91-28.26,170.85-29.22,171.65A4.4,4.4,0,0,1,119.47,342.46Z"/></svg>
